<svg xmlns="http://www.w3.org/2000/svg" width="53" height="53" fill="none"><g filter="url(#a)"><g clip-path="url(#b)"><rect width="52" height="52" x=".844" y=".843" fill="url(#c)" rx="12"/><g filter="url(#d)"><path fill="#fff" d="m40.35 30.234-14.9-6.475a11.135 11.135 0 0 0 2.63-5.994h.897a.82.82 0 0 0 .82-.82v-3.281a.82.82 0 0 0-.82-.82h-3.282a.82.82 0 0 0-.82.82v3.28a.82.82 0 0 0 .82.821h.731a9.52 9.52 0 0 1-2.865 5.603 9.52 9.52 0 0 1-5.795 2.62v-.507a.82.82 0 0 0-.82-.82h-3.282a.82.82 0 0 0-.82.82v3.281c0 .453.367.82.82.82h3.281a.82.82 0 0 0 .82-.82v-1.128a11.138 11.138 0 0 0 5.964-2.255l6.505 14.97a.82.82 0 0 0 1.537-.086l1.489-4.869a3.212 3.212 0 0 1 2.134-2.134l4.87-1.49a.82.82 0 0 0 .086-1.536Z"/></g></g></g><defs><filter id="a" width="52" height="72" x=".844" y="-5.157" color-interpolation-filters="sRGB" filterUnits="userSpaceOnUse"><feFlood flood-opacity="0" result="BackgroundImageFix"/><feBlend in="SourceGraphic" in2="BackgroundImageFix" result="shape"/><feColorMatrix in="SourceAlpha" result="hardAlpha" values="0 0 0 0 0 0 0 0 0 0 0 0 0 0 0 0 0 0 127 0"/><feOffset dy="14"/><feGaussianBlur stdDeviation="7"/><feComposite in2="hardAlpha" k2="-1" k3="1" operator="arithmetic"/><feColorMatrix values="0 0 0 0 1 0 0 0 0 1 0 0 0 0 1 0 0 0 0.25 0"/><feBlend in2="shape" result="effect1_innerShadow_229_1934"/><feColorMatrix in="SourceAlpha" result="hardAlpha" values="0 0 0 0 0 0 0 0 0 0 0 0 0 0 0 0 0 0 127 0"/><feOffset dy="-6"/><feGaussianBlur stdDeviation="4"/><feComposite in2="hardAlpha" k2="-1" k3="1" operator="arithmetic"/><feColorMatrix values="0 0 0 0 1 0 0 0 0 1 0 0 0 0 1 0 0 0 0.35 0"/><feBlend in2="effect1_innerShadow_229_1934" result="effect2_innerShadow_229_1934"/></filter><filter id="d" width="56" height="56" x="-1.156" y="6.843" color-interpolation-filters="sRGB" filterUnits="userSpaceOnUse"><feFlood flood-opacity="0" result="BackgroundImageFix"/><feColorMatrix in="SourceAlpha" result="hardAlpha" values="0 0 0 0 0 0 0 0 0 0 0 0 0 0 0 0 0 0 127 0"/><feOffset dy="8"/><feGaussianBlur stdDeviation="7"/><feComposite in2="hardAlpha" operator="out"/><feColorMatrix values="0 0 0 0 0.294175 0 0 0 0 0.111042 0 0 0 0 0.683333 0 0 0 0.25 0"/><feBlend in2="BackgroundImageFix" result="effect1_dropShadow_229_1934"/><feBlend in="SourceGraphic" in2="effect1_dropShadow_229_1934" result="shape"/><feColorMatrix in="SourceAlpha" result="hardAlpha" values="0 0 0 0 0 0 0 0 0 0 0 0 0 0 0 0 0 0 127 0"/><feOffset dy="1"/><feGaussianBlur stdDeviation=".5"/><feComposite in2="hardAlpha" k2="-1" k3="1" operator="arithmetic"/><feColorMatrix values="0 0 0 0 0.0188106 0 0 0 0 0.912174 0 0 0 0 0.48336 0 0 0 0.25 0"/><feBlend in2="shape" result="effect2_innerShadow_229_1934"/></filter><linearGradient id="c" x1="26.844" x2="26.844" y1="-22.915" y2="56.429" gradientUnits="userSpaceOnUse"><stop stop-color="#3AEEAD"/><stop offset="1" stop-color="#009E81"/></linearGradient><clipPath id="b"><rect width="52" height="52" x=".844" y=".843" fill="#fff" rx="12"/></clipPath></defs></svg>